<mxfile host="app.diagrams.net" modified="2023-07-23T09:47:35.538Z" agent="Mozilla/5.0 (Windows NT 10.0; Win64; x64) AppleWebKit/537.36 (KHTML, like Gecko) Chrome/114.0.0.0 Safari/537.36" etag="ZUg7rodH_2-PvClhcXIY" version="21.6.5" type="device">
  <diagram name="페이지-1" id="x6fjJlOgTk8IAcsoWxAi">
    <mxGraphModel dx="932" dy="1348" grid="1" gridSize="10" guides="1" tooltips="1" connect="1" arrows="1" fold="1" page="1" pageScale="1" pageWidth="827" pageHeight="1169" math="0" shadow="0">
      <root>
        <mxCell id="0" />
        <mxCell id="1" parent="0" />
        <mxCell id="gWC5bL2SWAvQFXIqATQv-1" value="생성" style="ellipse;whiteSpace=wrap;html=1;" vertex="1" parent="1">
          <mxGeometry x="40" y="190" width="120" height="80" as="geometry" />
        </mxCell>
        <mxCell id="gWC5bL2SWAvQFXIqATQv-2" value="준비" style="ellipse;whiteSpace=wrap;html=1;" vertex="1" parent="1">
          <mxGeometry x="240" y="190" width="120" height="80" as="geometry" />
        </mxCell>
        <mxCell id="gWC5bL2SWAvQFXIqATQv-3" value="실행" style="ellipse;whiteSpace=wrap;html=1;" vertex="1" parent="1">
          <mxGeometry x="440" y="190" width="120" height="80" as="geometry" />
        </mxCell>
        <mxCell id="gWC5bL2SWAvQFXIqATQv-4" value="완료" style="ellipse;whiteSpace=wrap;html=1;" vertex="1" parent="1">
          <mxGeometry x="640" y="190" width="120" height="80" as="geometry" />
        </mxCell>
        <mxCell id="gWC5bL2SWAvQFXIqATQv-5" value="대기" style="ellipse;whiteSpace=wrap;html=1;" vertex="1" parent="1">
          <mxGeometry x="340" y="310" width="120" height="80" as="geometry" />
        </mxCell>
        <mxCell id="gWC5bL2SWAvQFXIqATQv-6" value="" style="endArrow=classic;html=1;rounded=0;exitX=1;exitY=0.5;exitDx=0;exitDy=0;entryX=0;entryY=0.5;entryDx=0;entryDy=0;" edge="1" parent="1" source="gWC5bL2SWAvQFXIqATQv-1" target="gWC5bL2SWAvQFXIqATQv-2">
          <mxGeometry width="50" height="50" relative="1" as="geometry">
            <mxPoint x="340" y="680" as="sourcePoint" />
            <mxPoint x="390" y="630" as="targetPoint" />
          </mxGeometry>
        </mxCell>
        <mxCell id="gWC5bL2SWAvQFXIqATQv-7" value="" style="endArrow=classic;html=1;rounded=0;exitX=0.989;exitY=0.348;exitDx=0;exitDy=0;entryX=0.005;entryY=0.342;entryDx=0;entryDy=0;exitPerimeter=0;entryPerimeter=0;" edge="1" parent="1" source="gWC5bL2SWAvQFXIqATQv-2" target="gWC5bL2SWAvQFXIqATQv-3">
          <mxGeometry width="50" height="50" relative="1" as="geometry">
            <mxPoint x="360" y="229.41" as="sourcePoint" />
            <mxPoint x="440" y="229.41" as="targetPoint" />
          </mxGeometry>
        </mxCell>
        <mxCell id="gWC5bL2SWAvQFXIqATQv-17" value="디스패치" style="edgeLabel;html=1;align=center;verticalAlign=middle;resizable=0;points=[];" vertex="1" connectable="0" parent="gWC5bL2SWAvQFXIqATQv-7">
          <mxGeometry x="-0.1039" relative="1" as="geometry">
            <mxPoint as="offset" />
          </mxGeometry>
        </mxCell>
        <mxCell id="gWC5bL2SWAvQFXIqATQv-8" value="" style="endArrow=classic;html=1;rounded=0;exitX=1;exitY=0.5;exitDx=0;exitDy=0;entryX=0;entryY=0.5;entryDx=0;entryDy=0;" edge="1" parent="1">
          <mxGeometry width="50" height="50" relative="1" as="geometry">
            <mxPoint x="560" y="229.41" as="sourcePoint" />
            <mxPoint x="640" y="229.41" as="targetPoint" />
          </mxGeometry>
        </mxCell>
        <mxCell id="gWC5bL2SWAvQFXIqATQv-11" value="" style="curved=1;endArrow=classic;html=1;rounded=0;exitX=0.5;exitY=1;exitDx=0;exitDy=0;entryX=1;entryY=0.5;entryDx=0;entryDy=0;" edge="1" parent="1" source="gWC5bL2SWAvQFXIqATQv-3" target="gWC5bL2SWAvQFXIqATQv-5">
          <mxGeometry width="50" height="50" relative="1" as="geometry">
            <mxPoint x="340" y="680" as="sourcePoint" />
            <mxPoint x="390" y="630" as="targetPoint" />
            <Array as="points">
              <mxPoint x="500" y="300" />
            </Array>
          </mxGeometry>
        </mxCell>
        <mxCell id="gWC5bL2SWAvQFXIqATQv-14" value="I/O 이벤트" style="edgeLabel;html=1;align=center;verticalAlign=middle;resizable=0;points=[];" vertex="1" connectable="0" parent="gWC5bL2SWAvQFXIqATQv-11">
          <mxGeometry x="-0.0427" y="-2" relative="1" as="geometry">
            <mxPoint as="offset" />
          </mxGeometry>
        </mxCell>
        <mxCell id="gWC5bL2SWAvQFXIqATQv-12" value="" style="curved=1;endArrow=classic;html=1;rounded=0;exitX=0;exitY=0.5;exitDx=0;exitDy=0;entryX=0.5;entryY=1;entryDx=0;entryDy=0;" edge="1" parent="1" source="gWC5bL2SWAvQFXIqATQv-5" target="gWC5bL2SWAvQFXIqATQv-2">
          <mxGeometry width="50" height="50" relative="1" as="geometry">
            <mxPoint x="340" y="350" as="sourcePoint" />
            <mxPoint x="300" y="430" as="targetPoint" />
            <Array as="points">
              <mxPoint x="330" y="350" />
            </Array>
          </mxGeometry>
        </mxCell>
        <mxCell id="gWC5bL2SWAvQFXIqATQv-15" value="I/O 이벤트 완료" style="edgeLabel;html=1;align=center;verticalAlign=middle;resizable=0;points=[];" vertex="1" connectable="0" parent="gWC5bL2SWAvQFXIqATQv-12">
          <mxGeometry x="0.0959" y="1" relative="1" as="geometry">
            <mxPoint as="offset" />
          </mxGeometry>
        </mxCell>
        <mxCell id="gWC5bL2SWAvQFXIqATQv-16" value="" style="endArrow=classic;html=1;rounded=0;exitX=0.021;exitY=0.651;exitDx=0;exitDy=0;entryX=1.001;entryY=0.657;entryDx=0;entryDy=0;exitPerimeter=0;entryPerimeter=0;" edge="1" parent="1" source="gWC5bL2SWAvQFXIqATQv-3" target="gWC5bL2SWAvQFXIqATQv-2">
          <mxGeometry width="50" height="50" relative="1" as="geometry">
            <mxPoint x="369" y="228" as="sourcePoint" />
            <mxPoint x="451" y="227" as="targetPoint" />
          </mxGeometry>
        </mxCell>
        <mxCell id="gWC5bL2SWAvQFXIqATQv-18" value="시간 종료" style="edgeLabel;html=1;align=center;verticalAlign=middle;resizable=0;points=[];" vertex="1" connectable="0" parent="gWC5bL2SWAvQFXIqATQv-16">
          <mxGeometry x="0.0516" y="-1" relative="1" as="geometry">
            <mxPoint as="offset" />
          </mxGeometry>
        </mxCell>
      </root>
    </mxGraphModel>
  </diagram>
</mxfile>
